# xmcd
#
# Track frame offsets:
#	150
#	12638
#	26851
#	38977
#	51697
#	65378
#	76100
#	86981
#	99077
#	110836
#	123781
#	137400
#	150765
#	163471
#	176619
#	189112
#	202261
#	214176
#	228406
#	239870
#	251727
#	263909
#	275472
#	288478
#	300038
#	312519
#	322512
#	335539
#
# Disc length: 4595 seconds
#
# Revision: 0
# Processed by: cddbd v1.5.2PL0 Copyright (c) Steve Scherf et al.
# Submitted via: EZCDDA 4.3.3.2
#
DISCID=9311f11c
DTITLE=The Pied Pipers - Dream Team
DYEAR=1900
DGENRE=
TTITLE0=Dixieland Band
TTITLE1=Duration Blues
TTITLE2=Sam's Got Him
TTITLE3=St. Louis Blues
TTITLE4=Memphis Blues
TTITLE5=Embraceable You
TTITLE6=If I Knew Then
TTITLE7=I Guess I'll Have To Change My Plan
TTITLE8=Ugly Chile
TTITLE9=Movie Tonight
TTITLE10=I Do Do Do Like You
TTITLE11=It's The Same Old Dream
TTITLE12=The Riddle Song
TTITLE13=I Wanna Be A Friend Of Yours
TTITLE14=Louisville Lou
TTITLE15=Love That Boy
TTITLE16=I'll See You In My Dreams
TTITLE17=Goodbye Romance
TTITLE18=The Hills Of California
TTITLE19=Let's Fly
TTITLE20=Yes, We Have No Bananas
TTITLE21=I've Been Floating Down The Old Green River
TTITLE22=At The Jazz Band Ball
TTITLE23=You Are My Love
TTITLE24=I Had A Little Too Much To Dream Last Night
TTITLE25=You Say You're Sorry
TTITLE26=Too Little Time
TTITLE27=Gee
EXTD=
EXTT0=
EXTT1=
EXTT2=
EXTT3=
EXTT4=
EXTT5=
EXTT6=
EXTT7=
EXTT8=
EXTT9=
EXTT10=
EXTT11=
EXTT12=
EXTT13=
EXTT14=
EXTT15=
EXTT16=
EXTT17=
EXTT18=
EXTT19=
EXTT20=
EXTT21=
EXTT22=
EXTT23=
EXTT24=
EXTT25=
EXTT26=
EXTT27=
PLAYORDER=
